<?xml version="1.0" encoding="UTF-8"?>
<svg width="256px" height="256px" viewBox="0 0 256 256" version="1.1" xmlns="http://www.w3.org/2000/svg" xmlns:xlink="http://www.w3.org/1999/xlink">
    <!-- Generator: Sketch 49.2 (51160) - http://www.bohemiancoding.com/sketch -->
    <title>WordPress Importer</title>
    <desc>Created with Sketch.</desc>
    <defs>
        <linearGradient x1="50%" y1="-2.48949813e-15%" x2="50%" y2="100%" id="linearGradient-1">
            <stop stop-color="#99D9ED" offset="0%"></stop>
            <stop stop-color="#33B3DB" offset="100%"></stop>
        </linearGradient>
        <linearGradient x1="50%" y1="0%" x2="50%" y2="100%" id="linearGradient-2">
            <stop stop-color="#FBFBFC" offset="0%"></stop>
            <stop stop-color="#F3F4F5" offset="100%"></stop>
        </linearGradient>
        <path d="M72.4713872,111 L92.0026372,111 C95.2497075,111 97.8620122,113.612305 97.8620122,116.859375 L97.8620122,157.875 L119.273145,157.875 C123.618848,157.875 125.7917,163.124023 122.715528,166.200195 L85.5817387,203.358398 C83.750684,205.189453 69.2243168,111 72.4713872,111 Z" id="path-3"></path>
        <filter x="-2.9%" y="-1.6%" width="105.8%" height="103.2%" filterUnits="objectBoundingBox" id="filter-4">
            <feMorphology radius="0.5" operator="dilate" in="SourceAlpha" result="shadowSpreadOuter1"></feMorphology>
            <feOffset dx="0" dy="0" in="shadowSpreadOuter1" result="shadowOffsetOuter1"></feOffset>
            <feColorMatrix values="0 0 0 0 0.11372549   0 0 0 0 0.11372549   0 0 0 0 0.105882353  0 0 0 0.1 0" type="matrix" in="shadowOffsetOuter1"></feColorMatrix>
        </filter>
        <path d="M52.734375,0 L72.265625,0 C75.5126953,0 78.125,2.61230469 78.125,5.859375 L78.125,46.875 L99.5361328,46.875 C103.881836,46.875 106.054687,52.1240234 102.978516,55.2001953 L65.8447266,92.3583984 C64.0136719,94.1894531 61.0107422,94.1894531 59.1796875,92.3583984 L21.9970703,55.2001953 C18.9208984,52.1240234 21.09375,46.875 25.4394531,46.875 L46.875,46.875 L46.875,5.859375 C46.875,2.61230469 49.4873047,0 52.734375,0 Z M125,91.796875 L125,119.140625 C125,122.387695 122.387695,125 119.140625,125 L5.859375,125 C2.61230469,125 0,122.387695 0,119.140625 L0,91.796875 C0,88.5498047 2.61230469,85.9375 5.859375,85.9375 L41.6748047,85.9375 L53.6376953,97.9003906 C58.5449219,102.807617 66.4550781,102.807617 71.3623047,97.9003906 L83.3251953,85.9375 L119.140625,85.9375 C122.387695,85.9375 125,88.5498047 125,91.796875 Z" id="path-5"></path>
        <filter x="-26.4%" y="-26.4%" width="152.8%" height="152.8%" filterUnits="objectBoundingBox" id="filter-6">
            <feMorphology radius="1" operator="dilate" in="SourceAlpha" result="shadowSpreadOuter1"></feMorphology>
            <feOffset dx="0" dy="0" in="shadowSpreadOuter1" result="shadowOffsetOuter1"></feOffset>
            <feGaussianBlur stdDeviation="10" in="shadowOffsetOuter1" result="shadowBlurOuter1"></feGaussianBlur>
            <feColorMatrix values="0 0 0 0 0   0 0 0 0 0.403921569   0 0 0 0 0.6  0 0 0 0.4 0" type="matrix" in="shadowBlurOuter1"></feColorMatrix>
        </filter>
    </defs>
    <g id="WordPress-Importer" stroke="none" stroke-width="1" fill="none" fill-rule="evenodd">
        <rect id="Rectangle" fill="url(#linearGradient-1)" x="0" y="0" width="256" height="256"></rect>
        <g id="Group" transform="translate(76.000000, 20.000000)">
            <rect id="Rectangle-3" fill="#32373C" x="0" y="0" width="160" height="160" rx="26"></rect>
            <g id="Wordpress-Logo" transform="translate(23.000000, 23.000000)" fill="#E8EAEB">
                <path d="M57.5015584,8.0580594 C70.3992624,8.0580594 82.1428253,13.0005614 90.9458222,21.092684 C86.6311515,20.9769137 82.3253862,23.5416715 82.147278,29.4147888 C81.7843826,41.2879254 96.3447264,43.8170616 88.4990611,67.6991424 L82.0092442,87.453566 L64.3342336,35.3880919 C64.0603922,34.5821524 64.3787606,34.1235238 65.3694874,34.1235238 L70.366535,34.1235238 C70.626239,34.1235238 70.838544,33.9017791 70.838544,33.6302087 L70.838544,30.670496 C70.838544,30.3990369 70.6257047,30.1660714 70.366535,30.1772922 C60.9034247,30.5911043 51.4959732,30.5939095 42.1452937,30.1772922 C41.8848105,30.1661604 41.673307,30.3999274 41.673307,30.6715424 L41.673307,33.6312551 C41.673307,33.9025361 41.885701,34.1245702 42.1453159,34.1245702 L47.1697477,34.1245702 C48.2873988,34.1245702 48.6003127,34.4969944 48.8638014,35.2174198 L56.1261625,55.0787083 L45.201452,88.0665699 L27.2436946,35.1728927 C27.0210594,34.5094397 27.290448,34.1242808 27.9294111,34.1242808 L33.6544759,34.1242808 C33.9140909,34.1242808 34.1263958,33.9025361 34.1263958,33.6309657 L34.1263958,30.671253 C34.1263958,30.3997938 33.9133339,30.1644461 33.6544759,30.1780491 C27.6477775,30.4971077 21.6181477,30.5612712 16.0015062,30.6189337 C24.8154122,17.041747 40.1084485,8.0570798 57.4984861,8.0570798 L57.4984215,8.05694177 L57.5015584,8.0580594 Z M100.986671,33.9572153 C104.785941,40.9570895 106.943276,48.9770783 106.943276,57.4986642 C106.943276,76.2011364 96.5517772,92.479111 81.2311341,100.881364 L96.6508499,57.207012 C99.0397259,50.4478066 101.257173,41.3130832 100.985558,33.9572153 L100.985469,33.9572153 L100.986671,33.9572153 Z M74.0544876,104.096217 C68.8782185,105.93741 63.3078852,106.941495 57.5015584,106.941495 C52.4989449,106.941495 47.6722132,106.195667 43.1215492,104.815329 L58.3531382,61.1654664 L74.0542649,104.098443 L74.0542649,104.098441 L74.0544876,104.096217 Z M36.3445329,102.194912 C19.6244047,94.2653134 8.0587273,77.2308243 8.0587273,57.5008905 C8.0587273,50.1868781 9.64978995,43.2437759 12.5014132,36.9970767 L36.3457128,102.195803 L36.3445329,102.194912 Z M57.5,3.41834127 C87.362063,3.41834127 111.580323,27.6366012 111.580323,57.4986642 C111.580323,87.3607271 87.362063,111.578987 57.5,111.578987 C27.637937,111.578987 3.41967708,87.3607271 3.41967708,57.4986642 C3.41967708,27.6366012 27.637937,3.41834127 57.5,3.41834127 Z M57.5,0 C89.2500097,0 115,25.7499903 115,57.5 C115,89.2500097 89.2500097,115 57.5,115 C25.7499903,115 0,89.2500097 0,57.5 C0,25.7499903 25.7499903,9.88699019e-15 57.5,0 Z" id="Shape"></path>
            </g>
        </g>
        <g id="Path">
            <use fill="black" fill-opacity="1" filter="url(#filter-4)" xlink:href="#path-3"></use>
            <use fill="url(#linearGradient-2)" fill-rule="evenodd" xlink:href="#path-3"></use>
        </g>
        <g id="download" transform="translate(20.000000, 111.000000)" fill-rule="nonzero">
            <g>
                <use fill="black" fill-opacity="1" filter="url(#filter-6)" xlink:href="#path-5"></use>
                <use fill="url(#linearGradient-2)" fill-rule="evenodd" xlink:href="#path-5"></use>
            </g>
        </g>
    </g>
</svg>